<svg width="1200" height="693" viewBox="0 0 1200 693" fill="none" xmlns="http://www.w3.org/2000/svg">
<mask id="path-1-inside-1_4229_2615" fill="white">
<path d="M1200 672.168C1200 683.214 1191.05 692.168 1180 692.168H20C8.95435 692.168 0 683.214 0 672.168V20C0 8.95428 8.95435 0 20 0H1180C1191.05 0 1200 8.95428 1200 20V672.168Z"/>
</mask>
<path d="M1200 672.168C1200 683.214 1191.05 692.168 1180 692.168H20C8.95435 692.168 0 683.214 0 672.168V20C0 8.95428 8.95435 0 20 0H1180C1191.05 0 1200 8.95428 1200 20V672.168Z" fill="url(#paint0_linear_4229_2615)"/>
<path d="M1180 691.168H20V693.168H1180V691.168ZM1 672.168V20H-1V672.168H1ZM20 1H1180V-1H20V1ZM1199 20V672.168H1201V20H1199ZM1180 1C1190.49 1 1199 9.50659 1199 20H1201C1201 8.40204 1191.6 -1 1180 -1V1ZM1 20C1 9.50659 9.50659 1 20 1V-1C8.40198 -1 -1 8.40204 -1 20H1ZM20 691.168C9.50659 691.168 1 682.661 1 672.168H-1C-1 683.766 8.40198 693.168 20 693.168V691.168ZM1180 693.168C1191.6 693.168 1201 683.766 1201 672.168H1199C1199 682.661 1190.49 691.168 1180 691.168V693.168Z" fill="#FFD569" mask="url(#path-1-inside-1_4229_2615)"/>
<defs>
<linearGradient id="paint0_linear_4229_2615" x1="600" y1="692.168" x2="600" y2="64.3362" gradientUnits="userSpaceOnUse">
<stop stop-color="#FFD569" stop-opacity="0.12"/>
<stop offset="1" stop-color="#FFD569" stop-opacity="0"/>
</linearGradient>
</defs>
</svg>
