<svg width="20" height="22" viewBox="0 0 20 22" fill="none" xmlns="http://www.w3.org/2000/svg">
<path fill-rule="evenodd" clip-rule="evenodd" d="M7.43924 1.23972C6.0711 1.923 4.94666 2.49991 4.95094 2.52446C4.95094 2.58583 8.23874 4.17742 8.35418 4.17333C8.40548 4.17333 8.79027 4.00149 9.20926 3.79691L9.97029 3.42459L10.7997 3.83374L11.6291 4.24289L12.9887 3.6578C15.0324 2.77813 15.2462 2.67993 15.212 2.65129C15.1692 2.60629 14.4338 2.22987 12.4415 1.22745C11.4795 0.744653 10.5475 0.265947 10.3679 0.171842C10.1883 0.0736463 10.0173 0 9.98739 0C9.95746 0 8.80737 0.556444 7.43924 1.23972ZM1.43227 4.21834L0.00427568 4.92208V8.01525C0.00427568 9.71731 0.0213774 11.1084 0.0470299 11.1084C0.068407 11.1084 0.769576 10.8179 1.60756 10.462L3.12533 9.81551V6.55458L3.86498 6.93918C4.43789 7.23786 5.00652 7.53245 5.57943 7.83113L6.55422 8.33439L6.98604 8.14618C7.25967 8.02752 7.52902 7.90887 7.79837 7.79022C8.00787 7.69611 8.52092 7.47517 8.93991 7.29924C9.3589 7.1233 9.74369 6.94328 9.79927 6.90236C9.87195 6.84917 8.98266 6.37865 6.51147 5.16347C4.64738 4.24698 3.0612 3.50233 2.98852 3.50642C2.91584 3.51051 2.21467 3.82964 1.43227 4.21834ZM15.4642 4.41473C14.4937 4.83615 13.6985 5.19621 13.6985 5.21666C13.6985 5.23712 14.2286 5.53989 14.8742 5.88767C15.5241 6.23545 16.0499 6.53822 16.0499 6.56277C16.0499 6.58732 15.477 6.85326 14.7759 7.15194C14.0747 7.45471 12.3047 8.21982 10.8382 8.85401L5.93429 10.9775C4.69869 11.5094 3.58708 11.9922 3.46309 12.0454C0.944868 13.1378 0.247975 13.4406 0.153915 13.4938C0.0598562 13.547 0.0384788 13.8497 0.0213771 15.3759L0 17.1966L1.27408 17.8185L2.54815 18.4404L4.31818 17.6753C5.2887 17.2539 6.0882 16.8897 6.0882 16.8611C6.0882 16.8324 5.90863 16.722 5.69059 16.6115C5.47254 16.501 5.01935 16.2555 4.68159 16.0673C4.3481 15.8791 4.01462 15.7073 3.94194 15.6827C3.86926 15.6582 3.8094 15.6213 3.8094 15.5927C3.8094 15.5682 4.58753 15.2122 5.54095 14.8071C7.38793 14.0175 8.79882 13.4078 11.8301 12.0945C13.1854 11.5094 14.5407 10.9202 15.9003 10.3351C17.0931 9.8196 18.4784 9.21815 18.9786 8.99721L19.8893 8.59624L19.9106 6.75507L19.932 4.91389L18.6408 4.2838C17.9311 3.93602 17.3197 3.64962 17.2898 3.64962C17.2556 3.64962 16.4347 3.99739 15.4642 4.41473ZM19.5472 11.0593C19.3548 11.1493 18.9786 11.3171 18.7092 11.4317C18.4399 11.5462 17.9268 11.7672 17.572 11.9226L16.9264 12.2049L16.9136 13.8211C16.905 14.7089 16.8708 15.4331 16.8366 15.429C16.7597 15.4168 15.5497 14.8235 14.3312 14.1975C13.4505 13.7474 13.3949 13.727 13.1897 13.8252C13.07 13.8825 12.356 14.1893 11.6035 14.5044C10.851 14.8235 10.2097 15.1017 10.1798 15.1304C10.1499 15.1549 11.6634 15.9405 13.5488 16.8774L16.9692 18.5795L18.4313 17.8553C19.2351 17.4584 19.9192 17.0943 19.9491 17.0493C20.0218 16.947 20.0133 10.8834 19.9448 10.8916C19.9149 10.8957 19.7354 10.9693 19.5472 11.0593ZM11.4496 18.1744C11.1973 18.2767 10.9408 18.3831 10.6886 18.4895C9.92326 18.8045 10.0729 18.8168 9.16223 18.3831C8.55512 18.0926 8.29432 18.0067 8.17888 18.0476C8.09337 18.0803 7.36228 18.3954 6.54995 18.7473C5.74189 19.0991 5.04927 19.3896 5.01507 19.3896C4.67304 19.3896 5.24167 19.7129 7.42213 20.7644L9.97884 22L11.0562 21.4927C11.6463 21.2144 12.8434 20.6539 13.707 20.2488C14.5749 19.8438 15.2718 19.5042 15.259 19.4878C15.2462 19.4755 14.5193 19.1196 13.6429 18.6941L12.0524 17.9249L11.4496 18.1744Z" fill="#F3BA2F"/>
</svg>
